# xmcd CD database file
#
# Track frame offsets:
#	150
#	16637
#	36232
#	52925
#	70632
#	83290
#	104245
#	112637
#	133350
#	158007
#	174955
#	201077
#	212707
#
# Disc length: 3078 seconds
#
# Revision: 1
# Processed by: cddbd v1.5.2PL0 Copyright (c) Steve Scherf et al.
# Submitted via: CDex 1.70
#
DISCID=9d0c040d
DTITLE=Mythos - Eternity
DYEAR=2002
DGENRE=New Age
TTITLE0=Ascent
TTITLE1=Unity
TTITLE2=Del Mar
TTITLE3=Turn To Glory
TTITLE4=Alpha
TTITLE5=Exodus
TTITLE6=Leyenda
TTITLE7=Kyrie
TTITLE8=Dreams Of Jade
TTITLE9=Paradise
TTITLE10=Orca
TTITLE11=Sixth Sense
TTITLE12=Freedom
EXTD=2002 Spark Records YEAR: 2002
EXTT0=
EXTT1=
EXTT2=
EXTT3=
EXTT4=
EXTT5=
EXTT6=
EXTT7=
EXTT8=
EXTT9=
EXTT10=
EXTT11=
EXTT12=
PLAYORDER=
